<?xml version="1.0" encoding="UTF-8" standalone="no"?>
<!-- Created with Inkscape (http://www.inkscape.org/) -->

<svg
   width="210mm"
   height="297mm"
   viewBox="0 0 210 297"
   version="1.1"
   id="svg5"
   inkscape:version="1.1 (c4e8f9ed74, 2021-05-24)"
   sodipodi:docname="raspberry_pi_icon_offset2.svg"
   xmlns:inkscape="http://www.inkscape.org/namespaces/inkscape"
   xmlns:sodipodi="http://sodipodi.sourceforge.net/DTD/sodipodi-0.dtd"
   xmlns:xlink="http://www.w3.org/1999/xlink"
   xmlns="http://www.w3.org/2000/svg"
   xmlns:svg="http://www.w3.org/2000/svg">
  <sodipodi:namedview
     id="namedview7"
     pagecolor="#ffffff"
     bordercolor="#666666"
     borderopacity="1.0"
     inkscape:pageshadow="2"
     inkscape:pageopacity="0.0"
     inkscape:pagecheckerboard="0"
     inkscape:document-units="mm"
     showgrid="false"
     inkscape:zoom="0.4792789"
     inkscape:cx="397.47212"
     inkscape:cy="414.16386"
     inkscape:window-width="1366"
     inkscape:window-height="709"
     inkscape:window-x="0"
     inkscape:window-y="0"
     inkscape:window-maximized="1"
     inkscape:current-layer="layer1" />
  <defs
     id="defs2" />
  <g
     inkscape:label="Layer 1"
     inkscape:groupmode="layer"
     id="layer1">
    <path
       style="fill:#000000;stroke-width:0.0966131"
       sodipodi:type="inkscape:offset"
       inkscape:radius="0.85802114"
       inkscape:original="M 86.076172 78.529297 C 85.222833 78.562997 84.637429 79.51851 83.783203 79.402344 C 81.686996 78.565598 79.109159 78.752407 77.285156 80.142578 C 75.699233 80.207768 73.887629 80.089438 72.652344 81.283203 C 71.776897 81.607398 70.807808 81.26824 69.90625 81.525391 C 68.195734 81.748291 66.471906 82.419262 65.279297 83.705078 C 62.819521 83.611618 59.993214 84.60901 58.974609 87.029297 C 58.33534 88.485982 58.492317 90.157109 58.939453 91.644531 C 57.721973 93.621923 58.084486 96.257187 59.378906 98.089844 C 59.446546 98.865975 59.000713 99.635784 59.242188 100.42578 C 59.4623 101.87063 60.323341 103.14911 61.400391 104.10547 C 60.999448 106.33573 62.058978 108.64678 63.765625 110.07031 C 63.818215 112.27726 65.466052 113.95096 66.949219 115.39258 C 67.999692 116.53589 68.201612 118.24154 69.464844 119.22461 C 70.440348 120.13684 71.705756 120.64559 72.878906 121.2168 C 73.318239 121.93454 73.616902 122.75545 74.300781 123.30078 C 74.722168 123.72265 75.220903 124.05285 75.720703 124.37305 C 70.828549 127.56816 66.945033 132.47686 65.552734 138.20703 C 64.803588 141.08084 64.51325 144.05371 64.414062 147.01562 C 63.209468 148.81484 61.139756 149.77804 59.849609 151.50977 C 53.8542 158.18668 51.471677 168.13795 54.445312 176.68945 C 55.477626 179.71209 57.215098 182.4424 59.125 184.96875 C 59.652125 186.72991 59.867355 188.57243 60.517578 190.30078 C 61.439478 193.27575 62.331363 196.27345 63.011719 199.32031 C 65.279194 207.02941 71.085006 213.62582 78.484375 216.78125 C 80.486279 218.06004 82.253092 219.67546 84.322266 220.85742 C 87.285964 222.72298 90.489879 224.1762 93.707031 225.5293 C 95.287535 226.78069 96.731991 228.20461 98.455078 229.27148 C 103.33387 232.56104 109.28684 234.3165 115.17969 233.8457 C 121.52349 233.41564 127.66741 230.6626 132.23828 226.24805 C 133.61287 225.00314 135.495 224.67532 137.0957 223.82227 C 140.98746 222.02485 144.58988 219.65464 147.97266 217.03711 C 149.62134 216.08379 151.46117 215.47199 152.9668 214.27148 C 158.63571 210.36953 162.80078 204.32533 164.30469 197.59766 C 164.71533 195.72956 165.20739 193.88678 165.85156 192.08398 C 166.64885 189.7188 167.40328 187.31891 168.32031 185.00586 C 170.802 182.08185 173.00938 178.83148 174.0957 175.11523 C 175.9996 169.02725 175.19305 162.22177 172.12109 156.6543 C 170.23358 153.15743 167.45893 150.19085 164.24609 147.875 C 163.18784 146.7739 163.6937 145.15794 163.45117 143.80078 C 162.98121 138.02804 160.90729 132.16893 156.67383 128.07812 C 155.31862 126.71739 153.80066 125.53126 152.22656 124.43555 C 153.50623 123.69419 154.64802 122.58939 155.14258 121.16797 C 157.44301 120.44094 159.62033 118.79046 160.35938 116.41602 C 161.74176 115.41591 163.1371 114.33194 163.91211 112.76758 C 164.39383 111.96736 164.57109 111.00116 164.81641 110.14648 C 166.36055 108.81219 167.45906 106.82346 167.25586 104.73633 C 167.37713 103.91824 168.08902 103.34604 168.34766 102.56445 C 168.91035 101.33553 169.23006 99.957161 169.02734 98.605469 C 170.39378 96.734362 170.63362 94.127089 169.65625 92.033203 C 169.69845 91.097209 170.22246 90.253493 170.11523 89.28125 C 170.17883 86.774874 168.34867 84.256432 165.79492 83.908203 C 165.1612 83.717409 164.39653 83.881924 163.83398 83.613281 C 162.062 81.782382 159.37862 81.331937 156.9375 81.396484 C 155.66494 79.98719 153.56669 79.883927 151.81055 80.199219 C 149.48271 78.936133 146.58736 78.435601 144.07617 79.451172 C 142.12878 78.140949 139.49848 78.383743 137.53125 79.509766 C 136.55314 79.569296 135.587 79.112695 134.60547 79.380859 C 133.44617 79.509076 132.42972 80.136949 131.45898 80.722656 C 130.38925 80.85298 129.26441 80.57948 128.24805 81.070312 C 126.73577 81.562404 125.55696 82.704002 124.44531 83.767578 C 123.59476 83.853968 122.63213 83.730705 121.95898 84.388672 C 118.42827 86.723181 115.98835 90.334897 114.14062 94.074219 C 112.36082 90.089909 109.69534 86.260605 105.75781 84.177734 C 105.07212 83.813334 104.2716 83.863276 103.54883 83.697266 C 102.21499 82.414047 100.71158 81.064616 98.794922 80.816406 C 97.797694 80.693958 96.711967 80.997296 95.832031 80.34375 C 94.385355 79.328303 92.448353 79.044963 90.759766 79.558594 C 89.293089 78.899218 87.696296 78.455137 86.076172 78.529297 z M 84.289062 86.875 C 84.414715 86.9349 84.540365 86.994792 84.666016 87.054688 C 85.69759 87.59223 86.643423 88.584933 87.863281 88.580078 C 88.604501 88.470039 89.154847 87.870446 89.496094 87.240234 C 90.697091 88.043368 91.854486 88.908836 93.027344 89.751953 C 93.652587 89.233872 94.263076 88.689958 94.742188 88.029297 C 95.572333 88.785189 96.19571 89.870841 97.234375 90.339844 C 98.062876 90.564762 98.874868 90.052562 99.390625 89.439453 C 100.40442 90.490307 101.19152 91.801896 102.33008 92.703125 C 102.99961 92.93579 103.73026 92.667955 104.25195 92.230469 C 106.49605 95.108344 108.4492 98.501011 108.65039 102.25977 C 108.77309 104.19456 108.00636 106.20287 106.41211 107.36328 C 106.01193 107.57383 105.52684 108.35376 105.125 107.80273 C 96.561985 100.91401 86.519164 96.04803 76.082031 92.724609 C 75.213381 92.68767 73.995977 92.292287 73.5 93.291016 C 73.203527 94.241971 74.117758 95.073004 74.875 95.519531 C 77.54207 97.253432 80.460073 98.570932 83.171875 100.23633 C 89.573358 103.87799 95.787271 107.93637 101.01758 113.16992 C 101.12694 114.00866 100.41373 114.69154 100.05273 115.39062 C 97.73828 118.71025 93.60322 120.15319 89.757812 120.58984 C 88.816476 120.6938 87.870771 120.75266 86.923828 120.76758 C 86.950328 119.63387 85.960592 118.64213 84.814453 118.7168 C 83.934591 118.57706 82.94142 118.58652 82.125 118.44531 C 82.251714 117.52043 81.608281 116.62644 80.683594 116.47656 C 79.483334 116.0397 78.274346 115.62715 77.09375 115.13867 C 77.773987 114.60744 77.588193 113.60695 76.984375 113.09766 C 75.923084 111.93152 74.256672 111.60211 73.025391 110.72266 C 72.813487 110.22686 73.510639 109.96966 73.421875 109.45312 C 73.435645 108.29008 72.190858 107.73766 71.443359 107.0625 C 70.821301 106.66641 72.23917 106.90809 72.542969 106.80078 C 71.230006 104.80473 69.668293 102.97696 68.105469 101.1875 C 69.110289 100.88819 70.058929 100.43672 70.953125 99.892578 C 69.862506 98.45131 68.432489 97.329971 66.982422 96.273438 C 67.557107 96.230698 68.131186 96.298836 68.705078 96.322266 C 68.236996 94.521168 67.663951 92.743294 66.880859 91.052734 C 69.382743 91.021594 71.884755 91.003639 74.386719 90.980469 C 73.766106 90.153776 73.145795 89.326852 72.525391 88.5 C 74.234469 88.5942 75.933908 88.905563 77.546875 89.484375 C 78.146308 89.030293 78.702438 88.488028 79.033203 87.802734 C 80.377517 88.17136 81.711422 88.575412 83.046875 88.974609 C 83.613314 88.379664 84.064003 87.669238 84.289062 86.875 z M 144.54883 86.994141 C 144.61363 88.148579 145.96338 88.999538 147.01562 88.460938 C 147.85798 88.293857 148.73012 88.014332 149.51562 87.851562 C 150.02301 89.073498 151.57766 89.571822 152.74219 88.992188 C 153.7158 88.693933 154.70918 88.456655 155.71289 88.285156 C 155.01573 88.981227 154.31856 89.677286 153.62109 90.373047 C 156.19661 90.409157 158.77214 90.444637 161.34766 90.480469 C 160.54293 91.857483 159.9235 93.346354 159.58008 94.90625 C 160.12072 95.510967 160.93744 95.795456 161.73828 95.707031 C 160.8433 96.745347 159.62623 97.514632 158.92188 98.705078 C 158.31614 99.745112 159.21075 100.92015 160.23633 101.19922 C 160.52886 101.41777 159.58192 101.91352 159.36328 102.24219 C 158.7086 102.94573 157.82686 103.63259 157.66016 104.62305 C 157.59496 105.14577 157.99983 105.64134 158.17188 106.01758 C 157.08133 106.9796 155.67549 107.85424 155.23438 109.30664 C 155.21488 109.83331 155.48999 110.31555 155.85352 110.67773 C 153.9641 111.6902 152.03169 112.6182 150.11328 113.57422 C 150.44503 114.01564 150.8393 114.45988 151.21289 114.83398 C 149.76048 115.42808 148.11102 115.69261 146.82812 116.60938 C 146.47617 117.04841 146.47086 117.66163 146.63477 118.17773 C 144.81178 118.33358 142.69092 118.11983 141.12891 119.3125 C 140.79762 119.64621 140.62842 120.10657 140.55859 120.56445 C 138.68899 120.49285 136.88774 120.31003 135.10352 119.89258 C 131.94027 119.14481 128.62162 117.64401 126.9707 114.68555 C 126.7267 114.24159 126.50441 113.78433 126.33984 113.30469 C 132.91163 106.56167 141.2162 101.92177 149.35938 97.367188 C 150.90075 96.5095 152.704 95.7981 153.6875 94.251953 C 154.15884 93.545959 153.55479 92.56329 152.71875 92.632812 C 151.25134 92.585943 149.91889 93.354804 148.55664 93.796875 C 139.18298 97.431765 129.85551 101.65628 122.0293 108.08008 C 119.74041 106.64385 118.53983 103.7095 119.20312 101.08203 C 119.75088 97.655972 121.6375 94.6162 123.79492 91.966797 C 124.03332 92.621938 124.27136 93.277212 124.51172 93.931641 C 126.04552 92.552794 127.45476 91.034333 128.81641 89.494141 C 129.44904 90.383505 130.89113 90.715009 131.63672 89.779297 C 132.32771 89.153536 132.77585 88.149693 133.56836 87.716797 C 134.12919 88.726025 135.50137 89.667204 136.63086 88.984375 C 137.43468 88.388316 138.33619 87.743058 139.1582 87.273438 C 139.5083 88.242712 140.72698 89.162623 141.70898 88.472656 C 142.63582 87.958147 143.57722 87.352605 144.54883 86.994141 z M 114.16406 124.46289 C 119.17445 124.65442 124.2056 126.88351 127.35547 130.8457 C 128.37052 132.30821 128.55954 134.50518 127.2168 135.83594 C 125.65831 137.68971 123.34749 138.53976 121.09961 139.13867 C 117.44692 140.06316 113.56198 140.11011 109.89258 139.62695 C 106.52262 139.04415 102.83755 137.70943 100.58203 134.82422 C 99.7069 133.773 99.566219 132.14854 100.45312 131.05859 C 102.23753 128.20074 105.37322 126.54624 108.44336 125.4082 C 110.27944 124.77353 112.22008 124.44032 114.16406 124.46289 z M 89.71875 127.58203 C 90.88466 127.60103 91.993205 127.64273 93.140625 127.73047 C 90.275674 131.55387 86.705488 134.77523 83.134766 137.92188 C 80.167534 140.45913 77.082858 142.85226 73.646484 144.81055 C 73.204034 145.04795 72.732962 145.22368 72.261719 145.39453 C 72.210089 140.47492 73.931614 135.37154 77.667969 132.03906 C 80.931769 129.0959 85.356914 127.60906 89.71875 127.58203 z M 136.44727 128.14258 C 141.76061 128.09538 147.35305 130.16649 150.58008 134.54492 C 153.04994 137.78547 154.10879 141.97948 154.01367 145.98828 C 149.98491 144.25586 146.63668 141.33717 143.26953 138.5957 C 139.76776 135.58744 136.31544 132.4524 133.49414 128.78125 C 132.77691 128.13127 133.85043 128.28806 134.35352 128.20703 C 135.05092 128.16953 135.74893 128.15148 136.44727 128.14258 z M 131.53711 143.34766 C 137.1237 143.28816 142.27629 146.7714 145.19531 151.38867 C 148.14898 155.95228 149.30287 161.80477 147.78711 167.07422 C 146.67461 170.72935 143.76604 174.01974 139.91992 174.80469 C 137.68891 175.3413 135.35654 175.27069 133.14258 174.74414 C 131.39478 174.31528 129.51994 173.54502 127.93945 172.52539 C 124.37343 170.2255 121.60365 166.72781 120.13867 162.74805 C 119.56421 161.18699 119.18408 159.34336 119.15234 157.59961 C 118.9477 152.95951 120.80533 148.0233 124.73047 145.33594 C 126.71991 143.98529 129.13125 143.26915 131.53711 143.34766 z M 97.416016 144.0293 C 102.55222 144.0394 107.10456 148.19439 108.15625 153.12695 C 109.18384 157.20071 108.55549 161.64258 106.85547 165.35547 C 104.75576 170.08675 100.74656 174.1005 95.705078 175.55469 C 94.040446 176.04111 92.426528 176.2358 90.634766 176.11133 C 85.933258 175.84327 81.741692 172.34992 80.333984 167.90234 C 79.105551 164.06653 79.466034 159.84009 80.783203 156.07617 C 82.104587 152.36178 84.771701 149.2454 88.011719 147.04883 C 90.763263 145.16465 94.051923 143.95288 97.416016 144.0293 z M 157.25195 153.65234 C 159.8051 154.87547 161.96919 157.03846 163.37695 159.40234 C 164.71163 161.69901 165.43327 164.35085 165.54883 166.91406 C 165.73191 171.00841 164.54337 175.22701 162.02344 178.48438 C 161.55512 178.96898 161.1315 179.669 160.52344 179.91602 C 159.08089 178.80894 158.36517 177.00652 157.76758 175.33789 C 156.43651 171.31353 155.60721 167.13337 155.40625 162.93359 C 155.35545 160.25598 155.28392 157.47662 156.20508 154.92383 C 156.43997 154.4315 156.69635 153.84403 157.25195 153.65234 z M 69.009766 154.19922 L 69.101562 154.24023 L 69.121094 154.24805 C 70.115157 154.89535 70.120648 156.24907 70.386719 157.28906 C 71.020802 161.76352 70.469888 166.31275 69.675781 170.73047 C 69.043092 173.8635 68.170524 177.03968 66.414062 179.74219 C 66.103779 180.01424 65.606498 180.76706 65.261719 180.16992 C 61.672368 176.61922 60.347039 171.2946 60.867188 166.37109 C 61.401756 161.3223 64.585383 156.65976 69.009766 154.19922 z M 114.1582 175.97656 C 119.67257 175.96456 125.25981 178.60943 128.12891 183.41602 C 130.75943 187.76494 130.57755 193.52106 127.66602 197.68164 C 124.18791 202.89014 117.36679 205.34888 111.30664 204.05859 C 105.8875 203.01964 100.83027 199.17072 99.191406 193.7832 C 97.760962 189.08309 99.312058 183.70425 102.89062 180.36914 C 104.65324 178.63557 107.0812 177.26723 109.56445 176.58984 C 111.05642 176.16292 112.60849 175.97866 114.1582 175.97656 z M 153.59961 181.20508 C 155.00235 181.14088 156.18779 182.29353 156.4668 183.61523 C 158.04291 187.46171 158.23362 191.84762 157.58789 195.82227 C 156.62776 200.83539 153.14842 205.004 149.07812 207.90234 C 146.36809 209.7817 142.96716 210.96508 139.70312 210.69922 C 137.8253 210.57629 135.59506 209.68693 135.12305 207.66602 C 134.30485 204.66402 135.13937 201.53149 136.01562 198.64258 C 138.00852 192.85993 142.16832 188.11007 146.81445 184.26172 C 148.7718 182.72679 151.06904 181.38794 153.59961 181.20508 z M 74.878906 184.99219 C 77.219892 185.03739 79.417238 186.01933 81.267578 187.24023 C 86.394404 190.61953 90.671039 195.75355 91.886719 201.88672 C 92.362313 204.28102 92.490172 206.906 91.464844 209.17578 C 90.754785 210.34979 89.304872 210.56073 88.054688 210.62109 C 83.261666 210.96481 78.719565 208.42484 75.494141 205.04297 C 71.84545 201.13816 69.921446 195.70333 70.160156 190.37891 C 70.301421 188.53194 70.850712 186.12185 72.830078 185.31055 C 73.470633 185.00167 74.182963 184.99048 74.878906 184.99219 z M 116.84961 213.41211 C 120.2089 213.42271 123.50885 214.03699 126.51562 215.4082 C 127.53136 215.93861 128.83712 216.3832 129.3125 217.51367 C 129.19686 218.54897 128.15671 219.1403 127.54297 219.89258 C 124.51602 222.72076 120.76157 224.84798 116.70508 225.74805 C 112.08373 226.68444 107.15947 225.53189 103.3125 222.83984 C 101.56386 221.65614 99.850447 220.26046 98.746094 218.44336 C 98.744294 217.43037 99.929336 217.05255 100.64453 216.57617 C 103.66558 215.00096 107.04148 214.2146 110.39844 213.75586 C 112.53653 213.48639 114.69598 213.41102 116.84961 213.41211 z "
       xlink:href="#path67"
       id="path623"
       inkscape:href="#path67"
       d="M 86.037109,78.201172 C 84.30035,78.438326 85.41846,79.338414 83.699219,79 c -2.094211,-0.718297 -4.563616,-0.548756 -6.457031,0.8125 -0.6387,0.04235 -1.380268,0.01576 -2.185547,0.107422 -0.864289,0.09838 -1.821128,0.367728 -2.589844,1.111328 l 0.08984,-0.07617 c -0.170411,0.124098 -0.373204,0.157055 -0.777344,0.148438 -0.392237,-0.0084 -0.928055,-0.07393 -1.544922,0.05664 -1.786045,0.180486 -3.613242,0.871788 -4.986328,2.238282 -1.173295,-0.02642 -2.414285,0.131317 -3.554688,0.613281 -1.235568,0.522183 -2.357096,1.426461 -2.96875,2.773437 -0.749042,1.613582 -0.531459,3.338943 -0.09766,4.84375 -1.172804,2.06901 -0.890491,4.638909 0.402344,6.501953 a 0.85810694,0.85810694 0 0 0 0.01172,0.01758 c 0.07962,0.109013 0.07395,0.133757 -0.0039,0.478515 -0.07529,0.333382 -0.263935,0.871409 -0.140625,1.542967 0.14883,1.65765 1.092792,3.00556 2.212891,4.03906 -0.345823,2.30913 0.693629,4.55217 2.384766,6.01563 0.13409,2.17066 1.592176,3.82344 2.896484,5.06055 a 0.85810694,0.85810694 0 0 0 0.0098,0.01 c 0.687277,0.62993 1.144943,1.52177 1.55664,2.51953 a 0.85810694,0.85810694 0 0 0 0.03906,0.082 c 1.023315,1.8855 2.905761,2.81534 4.585937,3.49414 0.08623,0.0615 0.176375,0.19895 0.320313,0.51563 0.142274,0.31302 0.334758,0.78096 0.773437,1.1875 0.457964,0.54965 0.979567,0.96339 1.515625,1.31836 -4.169208,2.84965 -7.654192,6.82523 -9.339844,11.67969 -1.21773,3.48797 -1.62478,7.17379 -1.746093,10.74609 -0.933678,1.44848 -2.800707,2.36404 -4.232422,4.1582 -2.76926,3.00858 -4.736777,6.53581 -5.923828,10.44922 a 0.85810694,0.85810694 0 0 0 -0.002,0.002 c -1.138232,3.77182 -1.423124,7.8737 -0.757813,11.66992 2.22e-4,0.001 -2.22e-4,0.003 0,0.004 0.716961,4.42466 2.882067,8.41749 5.585938,11.8418 0.485178,1.37568 0.576338,3.01893 1.205078,4.70508 l -0.01758,-0.0527 c 0.951602,3.16574 1.977586,6.27237 2.626953,9.4336 a 0.85810694,0.85810694 0 0 0 0.01367,0.0625 c 1.746811,6.16682 5.664696,11.61044 10.921875,15.28906 1.504864,1.09287 3.208805,1.94829 4.865234,2.70117 l -0.08594,-0.0449 c 1.557497,0.93402 2.973097,2.30428 4.753906,3.38086 0.0043,0.003 0.0074,0.005 0.01172,0.008 3.259711,2.1608 6.781005,3.85578 10.369141,5.29492 1.145966,0.82146 2.185633,1.98737 3.587891,2.92774 3.564936,2.6455 7.748626,4.53732 12.111326,5.24414 a 0.85810694,0.85810694 0 0 0 0.002,0 c 2.36924,0.37637 4.72265,0.42876 7.15821,0.16992 a 0.85810694,0.85810694 0 0 0 0.006,0 c 5.53896,-0.62091 10.89682,-2.95006 15.10351,-6.63476 a 0.85810694,0.85810694 0 0 0 0.0371,-0.0332 c 1.01383,-0.99937 2.07254,-1.86304 3.28711,-2.21289 a 0.85810694,0.85810694 0 0 0 0.082,-0.0273 c 4.78327,-1.92181 9.18573,-4.60174 13.21094,-7.79297 l -0.0625,0.0449 c 1.27299,-0.83631 2.98307,-1.29552 4.53516,-2.4414 4.85334,-3.15851 8.78373,-7.88383 10.86523,-13.24805 l 0.002,-0.004 c 0.88057,-2.19093 1.37223,-4.45697 1.86133,-6.66015 l 0.002,-0.004 c 1.05735,-3.30022 2.15383,-6.59802 3.32812,-9.83984 1.98909,-2.38965 3.9295,-4.96431 5.10352,-7.95313 2.43973,-5.80301 2.36373,-12.52097 -0.0762,-18.30078 v -0.002 c -1.84248,-4.54753 -5.06553,-8.456 -9.04882,-11.26758 l 0.0586,0.0449 c -0.58182,-0.49063 -0.79345,-1.34793 -0.71289,-2.24023 a 0.85810694,0.85810694 0 0 0 0.002,-0.10938 c -0.23444,-5.93974 -1.95132,-12.13435 -6.14258,-16.68164 -1.50419,-1.67302 -3.25149,-3.0474 -5.04687,-4.31445 1.10092,-0.71464 2.03894,-1.65787 2.57031,-2.95313 2.28657,-0.73988 4.46606,-2.33632 5.3125,-4.78515 0.95585,-0.75026 2.16404,-1.48206 3.01563,-2.78125 0.75887,-1.03306 1.24627,-2.2546 1.43164,-3.54102 1.4246,-1.29359 2.66844,-3.06969 2.5625,-5.23828 a 0.85810694,0.85810694 0 0 0 -0.002,-0.0293 c -0.0367,-0.44999 0.0253,-0.7001 0.26758,-0.96094 a 0.85810694,0.85810694 0 0 0 0.0996,-0.13085 c 0.92644,-1.49237 1.5474,-3.29994 1.3418,-5.232427 1.40603,-1.987684 1.7277,-4.659447 0.62891,-6.882812 l 0.0723,0.21289 c -0.0425,-0.213235 0.0131,-0.478656 0.14648,-0.896484 0.12959,-0.406048 0.3228,-0.94884 0.28321,-1.613281 0.15836,-2.590639 -1.4354,-5.28337 -4.13477,-5.882813 -0.79069,-0.21479 -1.53363,-0.2328 -2.23437,-0.263672 -1.49053,-1.550188 -3.5812,-2.187706 -5.4961,-2.308593 -0.80992,-0.127096 -1.40898,-0.02278 -1.60156,-0.06445 -0.70988,-0.696848 -1.58244,-1.113768 -2.4668,-1.25 -0.90389,-0.139241 -1.78408,-0.0379 -2.59765,0.08789 -2.32589,-1.236372 -5.18974,-1.741743 -7.79883,-0.748047 -2.01982,-1.252557 -4.55344,-1.086121 -6.52344,0.02344 -0.234,0.06889 -0.53965,0.03399 -0.99804,-0.05469 -0.4457,-0.08622 -1.03497,-0.2117 -1.71289,-0.07813 -1.31693,0.09913 -2.43401,0.694605 -3.38282,1.337891 -0.25927,0.08668 -0.60245,0.08699 -1.08008,0.0625 -0.4768,-0.02445 -1.08857,-0.05476 -1.74414,0.179687 -1.77204,0.464215 -3.10415,1.596002 -4.24609,2.808594 -0.11873,0.05469 -0.32617,0.07065 -0.74023,0.07031 -0.42863,-3.54e-4 -1.09494,0.02854 -1.67188,0.484374 -2.12656,1.351082 -3.87252,3.189394 -5.31641,5.160157 a 0.85810694,0.85810694 0 0 0 -0.004,0.0039 c -0.99781,1.374971 -1.73174,2.859753 -2.49219,4.328125 -1.65476,-3.52431 -3.92459,-6.914085 -7.38672,-9.0625 -0.90188,-0.675578 -1.97841,-0.961772 -3.03906,-0.953125 l 0.0723,0.002 c -0.077,-0.0058 -0.16526,-0.04909 -0.38671,-0.273437 -0.21042,-0.213171 -0.48964,-0.560828 -0.9336,-0.853516 -1.30314,-1.149884 -3.042002,-2.093286 -5.003904,-1.851563 l 0.04102,-0.0039 c -0.658467,0.04922 -1.326648,-0.215171 -1.935547,-0.671875 a 0.85810694,0.85810694 0 0 0 -0.117187,-0.07422 c -1.4055,-0.737334 -3.069741,-0.888869 -4.628907,-0.46289 -1.470354,-0.651003 -3.094221,-1.154142 -4.826172,-1.0625 z m -1.597656,9.146484 c 0.797993,0.428429 1.671011,1.270836 3.0625,1.566406 a 0.85810694,0.85810694 0 0 0 0.265625,0.01367 c 0.682613,-0.07103 1.226069,-0.461489 1.576172,-0.876953 0.09983,-0.118471 0.127575,-0.232037 0.207031,-0.353515 0.986768,0.67353 1.968184,1.357933 2.9375,2.072265 a 0.85810694,0.85810694 0 0 0 1.041016,-0.01758 c 0.461128,-0.363146 0.789161,-0.840409 1.154297,-1.287109 0.606501,0.629972 1.149892,1.366482 2.080078,2.035156 A 0.85810694,0.85810694 0 0 0 97,90.619141 c 0.729375,0.235099 1.463987,0.0036 1.955078,-0.337891 0.163551,-0.113733 0.230629,-0.252292 0.363281,-0.380859 0.821671,0.914212 1.567501,1.955006 2.601561,2.927734 a 0.85810694,0.85810694 0 0 0 0.31641,0.189453 c 0.60723,0.202323 1.22422,0.06595 1.66406,-0.162109 0.0926,-0.04803 0.13209,-0.110698 0.21484,-0.164063 2.11945,2.790097 3.91989,5.882587 4.18555,9.265624 a 0.85810694,0.85810694 0 0 0 0,0.006 c 0.14528,1.71709 -0.30612,3.4978 -1.50781,4.60742 a 0.85810694,0.85810694 0 0 0 -0.043,0.043 c -0.36593,0.38854 -0.86612,0.70327 -1.35938,1.02539 C 96.785004,100.68734 86.714941,95.768259 76.253906,92.433594 a 0.85810694,0.85810694 0 0 0 -0.322265,-0.03711 c -0.08371,0.0061 -0.498954,-0.08254 -1.009766,-0.115234 -0.255406,-0.01635 -0.559831,-0.01488 -0.894531,0.115234 -0.334701,0.130113 -0.667701,0.426199 -0.84375,0.78711 a 0.85810694,0.85810694 0 0 0 -0.08594,0.408203 c 0.02925,0.810342 0.53561,1.409385 0.994141,1.777344 0.458531,0.367958 0.921115,0.613634 1.173828,0.80664 a 0.85810694,0.85810694 0 0 0 0.07813,0.05273 c 2.237732,1.353244 4.55754,2.443712 6.693359,3.736328 a 0.85810694,0.85810694 0 0 0 0.02344,0.01367 c 6.696273,3.765354 13.205319,7.952534 18.617183,13.320314 0.0451,0.12245 0.0562,0.21702 -0.0644,0.48633 -0.12982,0.28973 -0.38504,0.66509 -0.60937,1.0957 -1.898309,3.01043 -5.489299,4.61746 -9.062504,5.20312 a 0.85810694,0.85810694 0 0 0 -0.01367,0.004 c -1.247748,0.22365 -2.540091,0.272 -3.83789,0.30469 -0.03745,-0.21768 0.0289,-0.43883 -0.06445,-0.64844 -0.250229,-0.56189 -0.768472,-1.08188 -1.470703,-1.25976 a 0.85810694,0.85810694 0 0 0 -0.08594,-0.0176 c -1.05622,-0.15569 -2.093796,-0.21408 -3.125,-0.28516 -0.0056,-0.19228 0.0863,-0.3652 0.0332,-0.5625 -0.155629,-0.57824 -0.648237,-1.19119 -1.367187,-1.37109 l 0.08984,0.0273 c -1.204179,-0.44891 -2.355854,-0.88026 -3.496093,-1.33789 0.09964,-0.15924 0.218539,-0.29376 0.251953,-0.52148 0.05241,-0.35722 -0.05508,-0.75162 -0.251953,-1.05469 -1.08091,-1.66557 -2.940243,-1.98443 -3.949219,-2.64649 a 0.85810694,0.85810694 0 0 0 -0.302735,-0.125 c -0.07162,-0.0143 -0.03586,-9.2e-4 -0.04492,-0.0449 -0.0091,-0.044 -0.0023,-0.0939 0.04687,-0.13476 a 0.85810694,0.85810694 0 0 0 0.228515,-0.29493 c 0.173481,-0.36875 0.213576,-0.80533 0.117188,-1.16601 -0.09639,-0.36068 -0.290699,-0.62802 -0.480469,-0.83594 -0.379539,-0.41584 -0.791821,-0.6787 -0.949219,-0.82812 a 0.85810694,0.85810694 0 0 0 -0.07227,-0.0606 c -0.08661,-0.0656 -0.17318,-0.13162 -0.259766,-0.19727 a 0.85810694,0.85810694 0 0 0 0.330078,-1.1914 c -1.122549,-1.66601 -2.437501,-3.10685 -3.705078,-4.5625 0.687334,-0.23355 1.389811,-0.41721 2.017578,-0.79492 a 0.85810694,0.85810694 0 0 0 0.226563,-1.273442 c -0.847246,-1.051987 -1.84169,-1.856322 -2.841797,-2.607422 a 0.85810694,0.85810694 0 0 0 0.863281,-1.0625 c -0.375428,-1.43498 -0.959059,-2.799492 -1.552734,-4.15625 2.02218,-0.02393 4.043416,-0.04974 6.0625,-0.06055 a 0.85810694,0.85810694 0 0 0 0.68164,-1.373047 c -0.254685,-0.338702 -0.507298,-0.677287 -0.761719,-1.015624 1.335328,0.125625 2.651301,0.332285 3.890626,0.771484 a 0.85810694,0.85810694 0 0 0 0.808593,-0.126953 c 0.46451,-0.355218 0.747634,-0.91004 1.064453,-1.427735 1.205861,0.336325 2.408152,0.670249 3.589844,1.041016 a 0.85810694,0.85810694 0 0 0 0.886719,-0.234375 c 0.443764,-0.477289 0.724519,-1.03252 0.941406,-1.605469 z m 59.941407,0.158203 c 0.15494,0.439759 0.39863,0.833571 0.77344,1.089844 -0.0168,1.196918 1.58279,0.647126 1.75586,0.224609 0.85195,-0.156866 1.67247,-0.399516 2.46679,-0.589843 0.59098,1.006774 1.78387,1.593998 2.98243,1.224609 a 0.85810694,0.85810694 0 0 0 0.0156,-0.0059 c 0.7052,-0.231392 1.45143,-0.304263 2.17578,-0.46875 -0.0912,0.09107 -0.18222,0.182363 -0.27344,0.273437 a 0.85810694,0.85810694 0 0 0 0.59375,1.464844 c 1.99123,0.02808 3.9805,0.05561 5.97071,0.08398 -0.63472,1.167877 -1.20352,2.388901 -1.50586,3.732422 a 0.85810694,0.85810694 0 0 0 0.23242,0.794922 c 0.4084,0.407319 0.89667,0.557363 1.36719,0.632813 -0.555,0.550918 -1.05922,1.10005 -1.64649,1.691406 -0.31671,0.309201 -0.63136,0.705262 -0.79687,1.242187 -0.16124,0.523066 -0.067,1.266336 0.40429,1.777346 0.27474,0.33656 0.60021,0.50245 0.91993,0.65234 -0.8023,0.74008 -1.67442,1.51463 -2.33008,2.65821 a 0.85810694,0.85810694 0 0 0 -0.0801,0.1875 c -0.16893,0.58049 -0.008,1.15786 0.2168,1.55078 0.0441,0.0771 0.0915,0.10512 0.13867,0.17382 -0.94677,0.77768 -2.13978,1.58412 -2.78516,3.07422 a 0.85810694,0.85810694 0 0 0 -0.0703,0.30078 c -0.0259,0.53543 0.22673,0.94962 0.46484,1.27149 -1.58635,0.83375 -3.18744,1.64266 -4.81054,2.44336 a 0.85810694,0.85810694 0 0 0 -0.32227,1.26562 c 0.12751,0.18016 0.2474,0.276 0.37695,0.40625 -1.18943,0.41839 -2.49655,0.76965 -3.78515,1.51368 a 0.85810694,0.85810694 0 0 0 -0.23828,0.20312 c -0.37271,0.46255 -0.40354,1.04078 -0.34375,1.4668 -1.55135,0.0739 -3.32102,-0.0111 -5.02735,0.97265 a 0.85810694,0.85810694 0 0 0 -0.084,0.0547 c -0.49332,0.36554 -0.69386,0.83497 -0.81055,1.29492 -4.02385,-0.17899 -8.11918,-0.91253 -11.18359,-3.36328 -1.07103,-0.90224 -1.85348,-2.11068 -2.3711,-3.42383 6.11377,-6.21737 13.77627,-10.69187 21.44922,-15.00195 a 0.85810694,0.85810694 0 0 0 0.0234,-0.01367 c 1.49443,-0.903736 3.34453,-1.587795 4.9082,-2.935547 a 0.85810694,0.85810694 0 0 0 0.0703,-0.06836 c 0.13916,-0.151171 0.47172,-0.445397 0.72656,-0.896484 0.12742,-0.225544 0.25472,-0.521117 0.22461,-0.904297 -0.0301,-0.383181 -0.27717,-0.778832 -0.58399,-1.003907 a 0.85810694,0.85810694 0 0 0 -0.24609,-0.125 c -1.51279,-0.48505 -2.78804,0.340275 -3.61523,0.570313 a 0.85810694,0.85810694 0 0 0 -0.0723,0.02344 c -5.56362,2.10493 -11.06971,4.425747 -16.36719,7.244136 a 0.85810694,0.85810694 0 0 0 -0.002,0 c -3.94401,2.10547 -7.71422,4.55965 -11.20508,7.38672 -1.9313,-1.3264 -3.08888,-3.79392 -2.62305,-6.08789 a 0.85810694,0.85810694 0 0 0 0.01,-0.0586 c 0.42121,-3.232781 2.19478,-6.115144 4.25977,-8.763672 0.0665,0.183013 0.13269,0.365761 0.19921,0.548828 a 0.85810694,0.85810694 0 0 0 1.38477,0.341796 c 1.29398,-1.179123 2.41921,-2.472365 3.54688,-3.74414 0.13397,0.132943 0.19186,0.298336 0.35937,0.410156 0.51618,0.344578 1.30417,0.521585 2.01758,0.203125 a 0.85810694,0.85810694 0 0 0 0.14648,-0.08203 c 0.67603,-0.478386 1.09052,-1.086425 1.46875,-1.56836 0.23993,-0.30571 0.46861,-0.453688 0.69727,-0.644531 0.13048,0.209165 0.28165,0.450821 0.63281,0.669922 0.33753,0.285131 0.73122,0.542547 1.23828,0.638672 0.54966,0.104201 1.27682,-0.04476 1.74805,-0.5625 l -0.15235,0.130859 c 0.70196,-0.476898 1.3882,-0.934944 2.07813,-1.390625 0.0988,0.177443 0.1186,0.350773 0.25781,0.519532 0.41032,0.49738 1.15825,0.938794 1.98242,0.794921 a 0.85810694,0.85810694 0 0 0 0.27344,-0.09766 c 0.95986,-0.541335 1.85852,-0.99663 2.77344,-1.404297 z m -30.24805,37.285161 c 4.83035,0.1653 9.67695,2.31553 12.78125,6.00976 0.99554,1.30289 1.325,3.2664 0.31836,4.49024 a 0.85810694,0.85810694 0 0 0 -0.0293,0.0351 c -1.56945,2.13 -4.3617,3.0742 -7.11132,3.72656 -3.21769,0.64298 -6.56935,0.69011 -9.85157,0.30274 -3.50367,-0.58412 -7.05491,-1.86986 -9.24023,-4.54492 a 0.85810694,0.85810694 0 0 0 -0.0273,-0.0312 c -0.79445,-0.8821 -1.08117,-2.23793 -0.46289,-3.17383 a 0.85810694,0.85810694 0 0 0 0.0352,-0.0586 c 1.42235,-2.58137 4.18875,-4.2504 7.02149,-5.46094 2.08797,-0.85331 4.33109,-1.32707 6.5664,-1.29492 z m -24.419919,3.11914 c 2.459956,0.10127 -0.238336,-0.048 2.648437,0.13867 -2.189197,2.83538 -4.772751,5.39262 -7.460937,7.88476 -3.461875,3.11905 -7.093543,6.05277 -11.0625,8.40625 -0.356191,0.20523 -0.78906,0.32772 -1.1875,0.48633 0.08883,-3.86188 1.146169,-7.7294 3.535156,-10.71289 a 0.85810694,0.85810694 0 0 0 0.0059,-0.01 c 3.148838,-4.03427 8.406776,-6.17846 13.521485,-6.19336 z m 46.740229,0.56054 c 5.18292,-0.0498 10.59874,1.97435 13.74024,6.10547 a 0.85810694,0.85810694 0 0 0 0.008,0.01 c 2.35285,3.00633 3.38036,6.87091 3.43555,10.72656 -3.11651,-1.42607 -5.92989,-3.55468 -8.72461,-5.77148 -3.82136,-3.15845 -7.51028,-6.48515 -10.64063,-10.26563 l -0.004,-0.004 c -0.14715,-0.18727 -0.292,-0.40832 -0.43555,-0.60742 0.86505,-0.079 1.71692,-0.1842 2.62109,-0.19336 z m -4.9414,15.20508 a 0.85810694,0.85810694 0 0 0 0.0391,0 c 5.22851,-0.0611 10.18591,3.13553 13.08984,7.46484 a 0.85810694,0.85810694 0 0 0 0.006,0.006 c 2.9152,4.25209 4.14887,9.69916 3.12305,14.7461 -0.82247,3.72772 -3.42325,7.26037 -7.07617,8.35742 a 0.85810694,0.85810694 0 0 0 -0.0117,0.004 c -4.82244,1.5153 -10.33281,-0.005 -14.23047,-3.20899 a 0.85810694,0.85810694 0 0 0 -0.002,-0.002 c -3.30234,-2.70428 -5.75418,-6.52764 -6.6582,-10.6875 -0.84954,-4.35838 -0.0495,-9.16688 2.77539,-12.57813 a 0.85810694,0.85810694 0 0 0 0.01,-0.01 c 2.13233,-2.65708 5.52739,-4.20467 8.93555,-4.0918 z m -34.10547,0.68164 a 0.85810694,0.85810694 0 0 0 0.01758,0 c 4.747612,0.006 9.111982,3.79228 10.285152,8.35547 a 0.85810694,0.85810694 0 0 0 0.004,0.0195 c 1.64688,5.83691 -0.15728,12.40064 -4,17.06641 a 0.85810694,0.85810694 0 0 0 -0.002,0.002 c -3.05744,3.74688 -7.823721,6.22832 -12.654299,6.00586 a 0.85810694,0.85810694 0 0 0 -0.01758,0 c -3.817444,-0.0944 -7.478897,-2.40094 -9.361328,-5.72461 a 0.85810694,0.85810694 0 0 0 -0.0078,-0.0156 c -1.930012,-3.26556 -2.083903,-7.3718 -1.345703,-11.15625 v -0.004 c 0.741532,-3.71118 2.655061,-7.19054 5.488281,-9.68359 a 0.85810694,0.85810694 0 0 0 0.01758,-0.0156 c 3.151481,-2.92164 7.309898,-4.94836 11.576172,-4.84961 z m 59.83203,9.66797 c 1.6657,0.78524 3.12879,2.07045 4.41992,3.50977 3.46888,4.10023 4.40293,10.06516 2.86914,15.20117 a 0.85810694,0.85810694 0 0 0 -0.002,0.008 c -0.74496,2.58016 -2.0664,5.03302 -3.99805,6.79297 -0.0228,-0.0158 -0.0221,-0.01 -0.0547,-0.0391 -0.1565,-0.14107 -0.37999,-0.43964 -0.6543,-0.73828 -1.42449,-1.9044 -2.01846,-4.40062 -2.73438,-6.90235 -1.1577,-4.69028 -1.71603,-9.5629 -1.17773,-14.32422 0.21709,-1.34592 0.47805,-2.63124 1.19922,-3.42578 0.0519,-0.0338 0.0972,-0.0617 0.13281,-0.082 z M 69,154.65234 c 1.188771,1.56629 0.709266,1.30953 1.001953,2.3086 0.592904,3.46726 0.308101,7.08045 -0.140625,10.66601 -6.54e-4,0.005 -0.0013,0.0104 -0.002,0.0156 -0.585745,4.04901 -1.459541,8.09687 -3.457031,11.55078 -0.180507,0.30745 -0.521534,0.49765 -0.822266,0.71875 -3.262115,-3.20622 -4.759782,-8.00168 -4.447266,-12.58594 a 0.85810694,0.85810694 0 0 0 0.002,-0.0351 c 0.09974,-3.63951 1.786455,-7.18733 4.279296,-9.88282 1.037322,-1.10095 2.274562,-1.9937 3.585938,-2.75586 z m 44.65039,21.66016 a 0.85810694,0.85810694 0 0 0 0.0117,0 c 5.29067,-0.1659 10.79865,2.20954 13.75781,6.61719 a 0.85810694,0.85810694 0 0 0 0.01,0.0137 c 2.84632,4.05731 2.96143,9.88874 0.27929,14.05859 a 0.85810694,0.85810694 0 0 0 -0.0137,0.0195 c -3.07187,5.06472 -9.46454,7.75366 -15.29492,6.88086 a 0.85810694,0.85810694 0 0 0 -0.0176,-0.004 c -5.37182,-0.68984 -10.52551,-4.1807 -12.537107,-9.23242 a 0.85810694,0.85810694 0 0 0 0,-0.002 c -1.652035,-4.11955 -0.833954,-9.12458 1.947267,-12.58398 a 0.85810694,0.85810694 0 0 0 0.0117,-0.0137 c 2.75893,-3.57974 7.32475,-5.67581 11.8457,-5.75391 z m 39.95899,5.2207 c 1.08628,-0.0451 2.18538,0.82897 2.43945,1.89844 a 0.85810694,0.85810694 0 0 0 0.0449,0.13672 c 1.46558,3.44888 1.75369,7.35962 1.33398,11.13476 a 0.85810694,0.85810694 0 0 0 0,0.002 c -0.46268,4.20015 -2.87499,8.02108 -6.02929,10.88672 a 0.85810694,0.85810694 0 0 0 -0.0195,0.0176 c -3.21448,3.0943 -7.65092,5.22919 -12.06446,4.72265 -0.84861,-0.1069 -1.75224,-0.39026 -2.45312,-0.83594 -0.70088,-0.44567 -1.19052,-1.017 -1.38672,-1.78711 a 0.85810694,0.85810694 0 0 0 -0.01,-0.0351 c -0.75036,-2.50693 -0.15788,-5.29815 0.57032,-8.00391 1.4631,-4.92469 4.58639,-9.24592 8.35351,-12.79687 a 0.85810694,0.85810694 0 0 0 0.0137,-0.0137 c 2.50194,-2.46472 5.35371,-4.74166 8.6836,-5.29102 a 0.85810694,0.85810694 0 0 0 0.0117,-0.002 c 0.0958,-0.0172 0.27132,-0.019 0.51172,-0.0332 z m -79.300786,3.79492 a 0.85810694,0.85810694 0 0 0 0.05664,0 c 2.752058,-0.12605 5.418975,1.17663 7.720704,2.87891 a 0.85810694,0.85810694 0 0 0 0.0098,0.008 c 4.521983,3.24683 8.194081,7.91952 9.390625,13.34375 a 0.85810694,0.85810694 0 0 0 0,0.004 c 0.543993,2.41187 0.639894,4.96775 -0.179687,7.20117 -0.40709,0.87791 -1.429839,1.41698 -2.476563,1.44531 a 0.85810694,0.85810694 0 0 0 -0.09766,0.008 c -4.286747,0.61401 -8.639835,-1.37797 -11.867188,-4.30078 a 0.85810694,0.85810694 0 0 0 -0.0078,-0.006 c -4.157999,-3.68672 -6.426533,-9.32948 -6.40625,-14.88282 0.07977,-1.65605 0.369822,-3.319 1.263672,-4.48828 0.640932,-0.75035 1.633508,-1.23154 2.59375,-1.21094 z m 42.544926,28.41211 a 0.85810694,0.85810694 0 0 0 0.002,0 c 3.80723,9.7e-4 7.65866,0.84325 10.94922,2.69336 0.32816,0.22641 0.65712,0.44898 0.87304,0.66211 0.20261,0.19998 0.26361,0.34453 0.28711,0.48828 -0.0357,0.25371 -0.14768,0.48641 -0.41211,0.78907 -0.28595,0.32731 -0.69998,0.68132 -1.08203,1.14843 l 0.0664,-0.0742 c -2.73562,2.64954 -6.14391,4.6282 -9.79297,5.72265 -4.30857,1.16623 -9.07897,0.50097 -12.91797,-1.7793 a 0.85810694,0.85810694 0 0 0 -0.01,-0.006 c -2.22764,-1.27987 -4.28605,-2.9022 -5.712894,-4.94336 -0.07094,-0.14034 -0.07002,-0.18777 0.02734,-0.35938 0.104767,-0.18466 0.358842,-0.42905 0.613282,-0.58203 a 0.85810694,0.85810694 0 0 0 0.03516,-0.0215 c 2.196523,-1.46516 4.855953,-2.23835 7.546873,-2.86524 3.0946,-0.69962 6.30009,-0.88052 9.52735,-0.87305 z" />
    <path
       id="path67"
       style="fill:#000000;stroke-width:0.0966131"
       d="m 86.076172,78.529297 c -0.853339,0.0337 -1.438743,0.989213 -2.292969,0.873047 -2.096207,-0.836746 -4.674044,-0.649937 -6.498047,0.740234 -1.585923,0.06519 -3.397527,-0.05314 -4.632812,1.140625 -0.875447,0.324195 -1.844801,-0.01485 -2.746359,0.242301 -1.710516,0.2229 -3.434079,0.893758 -4.626688,2.179574 -2.459776,-0.09346 -5.285855,0.904286 -6.30446,3.324573 -0.639269,1.456685 -0.482516,3.127458 -0.03538,4.61488 -1.21748,1.977392 -0.854967,4.612656 0.439453,6.445313 0.06764,0.776131 -0.378192,1.545939 -0.136718,2.335936 0.220112,1.44485 1.081153,2.72333 2.158203,3.67969 -0.400943,2.23026 0.658587,4.54131 2.365234,5.96484 0.05259,2.20695 1.700524,3.88085 3.183691,5.32247 1.050473,1.14331 1.252296,2.84876 2.515528,3.83183 0.975504,0.91223 2.240912,1.42098 3.414062,1.99219 0.439333,0.71774 0.73738,1.53886 1.421259,2.08419 0.421387,0.42187 0.920738,0.75186 1.420538,1.07206 -4.892154,3.19511 -8.77567,8.10381 -10.167969,13.83398 -0.749146,2.87381 -1.039484,5.84667 -1.138672,8.80859 -1.204595,1.79922 -3.274075,2.76307 -4.564222,4.4948 -5.995409,6.67691 -8.378451,16.62799 -5.404815,25.17949 1.032314,3.02264 2.769655,5.75192 4.679557,8.27827 0.527125,1.76116 0.741834,3.60381 1.392057,5.33216 0.9219,2.97497 1.814882,5.97279 2.495238,9.01965 2.267475,7.7091 8.073129,14.30583 15.472498,17.46126 2.001904,1.27879 3.769572,2.89435 5.838746,4.07631 2.963698,1.86556 6.16668,3.31809 9.383832,4.67119 1.580504,1.25139 3.025699,2.67504 4.748786,3.74191 4.878791,3.28956 10.830711,5.04639 16.723561,4.57559 6.3438,-0.43006 12.48811,-3.1843 17.05898,-7.59885 1.37459,-1.24491 3.25757,-1.57236 4.85827,-2.42541 3.89176,-1.79742 7.49246,-4.16754 10.87524,-6.78507 1.64868,-0.95332 3.48947,-1.56458 4.9951,-2.76509 5.66891,-3.90195 9.83326,-9.94652 11.33717,-16.67419 0.41064,-1.8681 0.90411,-3.71166 1.54828,-5.51446 0.79729,-2.36518 1.55003,-4.76336 2.46706,-7.07641 2.48169,-2.92401 4.68917,-6.17561 5.77549,-9.89186 1.9039,-6.08798 1.09816,-12.89314 -1.9738,-18.46061 -1.88751,-3.49687 -4.66216,-6.46345 -7.875,-8.7793 -1.05825,-1.1011 -0.55308,-2.7171 -0.79561,-4.07426 -0.46996,-5.77274 -2.54365,-11.63097 -6.77711,-15.72178 -1.35521,-1.36073 -2.87271,-2.5477 -4.44681,-3.64341 1.27967,-0.74136 2.42146,-1.84616 2.91602,-3.26758 2.30043,-0.72703 4.47775,-2.37751 5.2168,-4.75195 1.38238,-1.00011 2.77868,-2.08504 3.55369,-3.6494 0.48172,-0.80022 0.65734,-1.76486 0.90266,-2.61954 1.54414,-1.33429 2.64333,-3.32362 2.44013,-5.41075 0.12127,-0.81809 0.83316,-1.39029 1.0918,-2.17188 0.56269,-1.22892 0.8824,-2.607289 0.67968,-3.958981 1.36644,-1.871107 1.60628,-4.47838 0.62891,-6.572266 0.0422,-0.935994 0.56699,-1.778743 0.45976,-2.750986 0.0636,-2.506376 -1.76789,-5.025114 -4.32164,-5.373343 -0.63372,-0.190794 -1.39784,-0.02695 -1.96039,-0.295593 -1.77198,-1.830899 -4.45536,-2.281344 -6.89648,-2.216797 -1.27256,-1.409294 -3.37081,-1.512557 -5.12695,-1.197265 -2.32784,-1.263086 -5.22319,-1.763618 -7.73438,-0.748047 -1.94739,-1.310223 -4.57769,-1.067433 -6.54492,0.05859 -0.97811,0.05953 -1.94362,-0.397458 -2.92515,-0.129294 -1.1593,0.128217 -2.17638,0.756477 -3.14712,1.342184 -1.06973,0.130324 -2.19422,-0.142509 -3.21058,0.348324 -1.51228,0.492091 -2.69144,1.633022 -3.80309,2.696598 -0.85055,0.08639 -1.81228,-0.03767 -2.48543,0.620297 -3.53071,2.334509 -5.97153,5.947022 -7.81926,9.686344 -1.77981,-3.98431 -4.44454,-7.814548 -8.38207,-9.897419 -0.68569,-0.3644 -1.48695,-0.313524 -2.20972,-0.479534 -1.33384,-1.283219 -2.8368,-2.631939 -4.753455,-2.880149 -0.997228,-0.122448 -2.083036,0.179207 -2.962972,-0.474339 -1.446676,-1.015447 -3.38405,-1.297815 -5.072637,-0.784184 -1.466677,-0.659376 -3.06347,-1.103457 -4.683594,-1.029297 z m -1.410156,8.525391 c 1.031574,0.537543 1.976503,1.529831 3.196361,1.524976 0.74122,-0.110039 1.29247,-0.709218 1.633717,-1.33943 1.200997,0.803134 2.358392,1.668602 3.53125,2.511719 0.625243,-0.518081 1.235733,-1.061995 1.714844,-1.722656 0.830145,0.755892 1.452947,1.842091 2.491612,2.311094 0.828501,0.224918 1.641068,-0.287829 2.156825,-0.900938 1.013795,1.050854 1.801795,2.362903 2.940355,3.264132 0.66953,0.232665 1.39928,-0.03563 1.92097,-0.473116 2.2441,2.877875 4.19725,6.270546 4.39844,10.029301 0.1227,1.93479 -0.64429,3.94262 -2.23854,5.10303 -0.40018,0.21055 -0.88509,0.9909 -1.28693,0.43987 C 96.561905,100.91395 86.519164,96.04803 76.082031,92.724609 75.213381,92.68767 73.995977,92.292287 73.5,93.291016 c -0.296473,0.950955 0.617872,1.781632 1.375114,2.228159 2.66707,1.733901 5.584495,3.051429 8.296297,4.716825 6.401483,3.64166 12.615862,7.70037 17.846169,12.93392 0.10936,0.83874 -0.60336,1.52152 -0.96436,2.22061 -2.314454,3.31962 -6.44993,4.76248 -10.295338,5.19913 -0.941336,0.10396 -1.887111,0.163 -2.834054,0.17792 0.0265,-1.13371 -0.962844,-2.1261 -2.108983,-2.05143 -0.879862,-0.13974 -1.873425,-0.12963 -2.689845,-0.27084 0.126714,-0.92488 -0.515767,-1.81896 -1.440454,-1.96884 -1.20026,-0.43686 -2.4102,-0.84932 -3.590796,-1.3378 0.680237,-0.53123 0.495257,-1.53159 -0.108561,-2.04088 -1.061291,-1.16614 -2.728517,-1.49568 -3.959798,-2.37513 -0.211904,-0.4958 0.485248,-0.75301 0.396484,-1.26954 0.01377,-1.16305 -1.231664,-1.71522 -1.979163,-2.39038 -0.622058,-0.39609 0.796458,-0.15465 1.100257,-0.26196 -1.312963,-1.99605 -2.874676,-3.82382 -4.4375,-5.61328 1.00482,-0.29931 1.95346,-0.75078 2.847656,-1.294922 -1.090619,-1.441268 -2.520636,-2.562607 -3.970703,-3.61914 0.574685,-0.04274 1.148764,0.0254 1.722656,0.04883 -0.468082,-1.801098 -1.041127,-3.578972 -1.824219,-5.269532 2.501884,-0.03114 5.003896,-0.0491 7.50586,-0.07227 C 73.766106,90.153773 73.145795,89.326852 72.525391,88.5 c 1.709078,0.0942 3.408517,0.405563 5.021484,0.984375 0.599433,-0.454082 1.155563,-0.996347 1.486328,-1.681641 1.344314,0.368626 2.678219,0.772678 4.013672,1.171875 0.566439,-0.594945 1.017128,-1.305371 1.242187,-2.099609 0.125652,0.0599 0.251303,0.119792 0.376954,0.179688 z m 59.882814,-0.06055 c 0.0648,1.154438 1.41457,2.005446 2.46681,1.466846 0.84235,-0.167081 1.71447,-0.446656 2.49998,-0.609425 0.50738,1.221936 2.06263,1.719299 3.22716,1.139665 0.97361,-0.298255 1.9664,-0.534572 2.97011,-0.706071 -0.69716,0.696071 -1.39433,1.39213 -2.0918,2.087891 2.57552,0.03611 5.15105,0.07159 7.72657,0.107422 -0.80473,1.377014 -1.42416,2.865885 -1.76758,4.425781 0.54064,0.604717 1.35736,0.889206 2.1582,0.800781 -0.89498,1.038316 -2.11204,1.807601 -2.8164,2.998047 -0.60574,1.040034 0.28887,2.215072 1.31445,2.494142 0.29253,0.21855 -0.65441,0.7143 -0.87305,1.04297 -0.65468,0.70354 -1.53642,1.3904 -1.70312,2.38086 -0.0652,0.52272 0.33968,1.01829 0.51172,1.39453 -1.09054,0.96202 -2.49727,1.83681 -2.93839,3.28921 -0.0195,0.52667 0.2565,1.00876 0.62003,1.37094 -1.88942,1.01247 -3.82183,1.94047 -5.74024,2.89649 0.33175,0.44142 0.72602,0.88566 1.09961,1.25976 -1.45241,0.5941 -3.10188,0.85864 -4.38477,1.7754 -0.35196,0.43903 -0.35726,1.05225 -0.19335,1.56835 -1.82299,0.15585 -3.94385,-0.0579 -5.50586,1.13477 -0.33129,0.33371 -0.50049,0.79407 -0.57032,1.25195 -1.8696,-0.0716 -3.66991,-0.25477 -5.45413,-0.67222 -3.16325,-0.74777 -6.48284,-2.24822 -8.13376,-5.20668 -0.244,-0.44396 -0.46629,-0.90122 -0.63086,-1.38086 6.57179,-6.74302 14.87705,-11.38244 23.02023,-15.937018 1.54137,-0.857688 3.34393,-1.569572 4.32743,-3.115719 0.47134,-0.705994 -0.13271,-1.688664 -0.96875,-1.619141 -1.46741,-0.04687 -2.80064,0.721026 -4.16289,1.163097 -9.37366,3.63489 -18.70035,7.860371 -26.52656,14.284171 -2.28889,-1.43623 -3.49012,-4.37124 -2.82683,-6.99871 0.54776,-3.426059 2.43503,-6.46517 4.59245,-9.114573 0.2384,0.655141 0.47644,1.310415 0.7168,1.964844 1.5338,-1.378847 2.94304,-2.897308 4.30469,-4.4375 0.63263,0.889364 2.07472,1.220868 2.82031,0.285156 0.69099,-0.625761 1.13913,-1.629604 1.93164,-2.0625 0.56083,1.009228 1.93301,1.950407 3.0625,1.267578 0.80382,-0.596059 1.70533,-1.241317 2.52734,-1.710937 0.3501,0.969275 1.56918,1.888239 2.55118,1.198272 0.92684,-0.514509 1.86784,-1.119105 2.83945,-1.477569 z m -30.38477,37.468749 c 5.01039,0.19153 10.04154,2.42062 13.19141,6.38281 1.01505,1.46251 1.20456,3.65962 -0.13818,4.99038 -1.55849,1.85377 -3.86913,2.70463 -6.11701,3.30354 -3.65269,0.92449 -7.53858,0.96979 -11.20798,0.48663 -3.36996,-0.5828 -7.05475,-1.91682 -9.31027,-4.80203 -0.875131,-1.05122 -1.015656,-2.67526 -0.12875,-3.76521 1.78441,-2.85785 4.9205,-4.51267 7.99064,-5.65071 1.83608,-0.63467 3.77616,-0.96798 5.72014,-0.94541 z m -24.44531,3.11914 c 1.16591,0.019 2.274455,0.0607 3.421875,0.14844 -2.864951,3.8234 -6.435903,7.04561 -10.006625,10.19226 -2.967232,2.53725 -6.050459,4.92871 -9.486833,6.887 -0.44245,0.2374 -0.914205,0.41395 -1.385448,0.5848 -0.05163,-4.91961 1.670211,-10.02325 5.406566,-13.35573 3.2638,-2.94316 7.688629,-4.42974 12.050465,-4.45677 z m 46.72852,0.56055 c 5.31334,-0.0472 10.90586,2.02434 14.13289,6.40277 2.46986,3.24055 3.52863,7.43413 3.43351,11.44293 -4.02876,-1.73242 -7.37699,-4.65111 -10.74414,-7.39258 -3.50177,-3.00826 -6.95327,-6.14286 -9.77457,-9.81401 -0.71723,-0.64998 0.35555,-0.49312 0.85864,-0.57415 0.6974,-0.0375 1.39533,-0.0561 2.09367,-0.065 z m -4.91016,15.20508 c 5.58659,-0.0595 10.73863,3.42279 13.65765,8.04006 2.95367,4.56361 4.10869,10.41626 2.59293,15.68571 -1.1125,3.65513 -4.02249,6.94568 -7.86861,7.73063 -2.23101,0.53661 -4.56254,0.46665 -6.7765,-0.0599 -1.7478,-0.42886 -3.62195,-1.1998 -5.20244,-2.21943 -3.56602,-2.29989 -6.33649,-5.7969 -7.80147,-9.77666 -0.57446,-1.56106 -0.95501,-3.4038 -0.98675,-5.14755 -0.20464,-4.6401 1.65341,-9.5772 5.57855,-12.26456 1.98944,-1.35065 4.40078,-2.06679 6.80664,-1.98828 z m -34.121094,0.68164 c 5.136204,0.0101 9.689084,4.16419 10.740774,9.09675 1.02759,4.07376 0.39838,8.51655 -1.30164,12.22944 -2.09971,4.73128 -6.10763,8.74423 -11.149107,10.19842 -1.664632,0.48642 -3.280369,0.68152 -5.072131,0.55705 -4.701508,-0.26806 -8.892404,-3.76139 -10.300112,-8.20897 -1.228433,-3.83581 -0.867766,-8.0619 0.449403,-11.82582 1.321384,-3.71439 3.988466,-6.83022 7.228484,-9.02679 2.751544,-1.88418 6.040236,-3.0965 9.404329,-3.02008 z m 59.835934,9.62304 c 2.55315,1.22313 4.71724,3.38612 6.125,5.75 1.33468,2.29667 2.05563,4.94909 2.17119,7.5123 0.18308,4.09435 -1.00477,8.31237 -3.5247,11.56974 -0.46832,0.4846 -0.89194,1.18462 -1.5,1.43164 -1.44255,-1.10708 -2.15864,-2.9092 -2.75623,-4.57783 -1.33107,-4.02436 -2.16,-8.20482 -2.36096,-12.4046 -0.0508,-2.67761 -0.12315,-5.45781 0.79801,-8.0106 0.23489,-0.49233 0.49209,-1.07896 1.04769,-1.27065 z m -88.130856,0.59571 c 0.994063,0.6473 1.000483,2.00143 1.266554,3.04142 0.634083,4.47446 0.08224,9.02328 -0.711867,13.441 -0.632689,3.13303 -1.505257,6.30921 -3.261719,9.01172 -0.310284,0.27205 -0.807487,1.02439 -1.152266,0.42725 -3.589351,-3.5507 -4.914792,-8.87446 -4.394643,-13.79797 0.534568,-5.04879 3.71823,-9.71171 8.142613,-12.17225 l 0.09158,0.0402 z m 45.037106,21.72851 c 5.51437,-0.012 11.10113,2.6322 13.97023,7.43879 2.63052,4.34892 2.44912,10.10571 -0.46241,14.26629 -3.47811,5.2085 -10.29923,7.66724 -16.35938,6.37695 -5.41914,-1.03895 -10.47694,-4.8881 -12.1158,-10.27562 -1.430444,-4.70011 0.122023,-10.07821 3.70059,-13.41332 1.76262,-1.73357 4.18971,-3.10297 6.67296,-3.78036 1.49197,-0.42692 3.0441,-0.61063 4.59381,-0.61273 z m 39.44141,5.22852 c 1.40274,-0.0642 2.58871,1.08841 2.86772,2.41011 1.57611,3.84648 1.76672,8.23181 1.12099,12.20646 -0.96013,5.01312 -4.4396,9.18161 -8.50989,12.07995 -2.71004,1.87936 -6.11128,3.06348 -9.37531,2.79762 -1.87783,-0.12293 -4.10825,-1.01326 -4.58026,-3.03417 -0.8182,-3.002 0.0165,-6.13356 0.89276,-9.02247 1.9929,-5.78265 6.15224,-10.53242 10.79837,-14.38077 1.95735,-1.53493 4.25505,-2.87387 6.78562,-3.05673 z m -78.720704,3.78711 c 2.340986,0.0452 4.538818,1.02673 6.389158,2.24763 5.126826,3.3793 9.403139,8.51341 10.618819,14.64658 0.475594,2.3943 0.603346,5.01866 -0.421982,7.28844 -0.710059,1.17401 -2.160123,1.38591 -3.410307,1.44627 -4.793022,0.34372 -9.335029,-2.19627 -12.560453,-5.57814 -3.648691,-3.90481 -5.572695,-9.33964 -5.333985,-14.66406 0.141265,-1.84697 0.691406,-4.25759 2.670772,-5.06889 0.640555,-0.30888 1.352035,-0.31954 2.047978,-0.31783 z m 41.970704,28.41992 c 3.35929,0.0106 6.6602,0.62481 9.66698,1.99602 1.01573,0.53041 2.32053,0.97507 2.79591,2.10554 -0.11564,1.0353 -1.15606,1.62657 -1.7698,2.37885 -3.02695,2.82818 -6.78094,4.95479 -10.83743,5.85486 -4.62135,0.93639 -9.54599,-0.21577 -13.39296,-2.90782 -1.74864,-1.1837 -3.461863,-2.5791 -4.566216,-4.3962 -0.0018,-1.01299 1.183041,-1.39088 1.898236,-1.86726 3.02105,-1.57521 6.3976,-2.36236 9.75456,-2.8211 2.13809,-0.26947 4.29709,-0.34398 6.45072,-0.34289 z" />
  </g>
</svg>
