<?xml version="1.0" encoding="UTF-8" standalone="no"?>
<!-- Created with Inkscape (http://www.inkscape.org/) -->

<svg
   width="210mm"
   height="297mm"
   viewBox="0 0 210 297"
   version="1.1"
   id="svg5"
   inkscape:version="1.1 (c4e8f9ed74, 2021-05-24)"
   sodipodi:docname="raspberry-pi-icon-png-26.jpg.svg"
   xmlns:inkscape="http://www.inkscape.org/namespaces/inkscape"
   xmlns:sodipodi="http://sodipodi.sourceforge.net/DTD/sodipodi-0.dtd"
   xmlns="http://www.w3.org/2000/svg"
   xmlns:svg="http://www.w3.org/2000/svg">
  <sodipodi:namedview
     id="namedview7"
     pagecolor="#ffffff"
     bordercolor="#666666"
     borderopacity="1.0"
     inkscape:pageshadow="2"
     inkscape:pageopacity="0.0"
     inkscape:pagecheckerboard="0"
     inkscape:document-units="mm"
     showgrid="false"
     inkscape:zoom="0.4792789"
     inkscape:cx="397.47212"
     inkscape:cy="562.30308"
     inkscape:window-width="1366"
     inkscape:window-height="709"
     inkscape:window-x="0"
     inkscape:window-y="0"
     inkscape:window-maximized="1"
     inkscape:current-layer="layer1" />
  <defs
     id="defs2" />
  <g
     inkscape:label="Layer 1"
     inkscape:groupmode="layer"
     id="layer1">
    <path
       style="fill:#000000;stroke-width:0.0966131"
       d="m 111.56944,232.25405 c -5.71752,-0.39694 -11.03655,-2.78293 -15.779394,-7.07823 l -1.154434,-1.0455 -1.677458,-0.67241 c -4.64736,-1.86288 -8.76755,-4.27176 -12.54644,-7.33531 -0.70595,-0.5723 -1.06836,-0.79351 -1.56991,-0.95824 -1.50528,-0.49442 -3.81183,-1.88833 -5.74497,-3.47184 -1.23097,-1.00835 -3.19529,-3.00708 -4.10388,-4.17578 -2.61682,-3.36595 -4.38542,-7.28169 -5.101,-11.29379 -0.14496,-0.81273 -0.51011,-2.10813 -1.11659,-3.96114 -1.022,-3.12255 -1.47951,-4.79458 -1.81848,-6.64577 -0.18724,-1.02255 -0.28619,-1.34689 -0.48636,-1.59412 -2.63353,-3.25273 -4.18029,-6.19826 -5.04051,-9.59877 -0.51944,-2.05335 -0.65999,-3.20903 -0.66225,-5.44509 -10e-4,-1.11584 0.0533,-2.3813 0.12478,-2.8984 0.65229,-4.72276 2.4402,-8.92201 5.40924,-12.70462 0.80494,-1.02551 2.76746,-2.92365 3.69593,-3.57468 0.70467,-0.49412 0.91235,-0.70803 1.40692,-1.4492 l 0.58022,-0.86952 0.0663,-1.59411 c 0.426,-10.23668 4.15253,-16.62217 12.43862,-21.31379 0.52982,-0.29999 0.95075,-0.55682 0.93539,-0.57075 -0.0154,-0.0139 -0.46269,-0.14283 -0.99406,-0.28647 -1.39723,-0.37769 -2.26372,-0.80731 -2.95165,-1.46349 -0.58039,-0.5536 -1.05826,-1.36431 -1.19896,-2.03409 -0.0585,-0.2785 -0.12513,-0.32719 -0.7035,-0.51404 -1.48508,-0.47978 -2.79582,-1.26273 -3.43726,-2.05319 -0.38341,-0.47249 -0.78526,-1.23921 -1.04467,-1.99321 -0.15445,-0.44889 -0.38095,-0.72914 -1.56515,-1.93649 -1.16938,-1.19224 -1.44235,-1.52853 -1.75625,-2.16367 -0.31886,-0.64516 -0.37453,-0.85433 -0.39178,-1.47211 l -0.0201,-0.7201 -0.67837,-0.62807 c -1.26527,-1.17145 -1.77847,-2.2514 -1.76303,-3.71012 0.005,-0.45593 0.0409,-0.97501 0.0802,-1.15351 0.0683,-0.31038 0.0366,-0.35934 -0.72544,-1.1214 -1.44736,-1.44736 -1.87824,-2.953728 -1.19341,-4.172212 l 0.21838,-0.388559 -0.35787,-0.559444 c -0.46513,-0.727108 -0.89802,-1.6579 -1.06797,-2.296323 -0.28028,-1.052878 -0.11137,-1.980624 0.55066,-3.024535 0.27576,-0.43483 0.29203,-0.50309 0.18308,-0.768189 -0.37378,-0.909475 -0.4958,-1.5598 -0.46246,-2.464746 0.0272,-0.738594 0.0825,-1.021589 0.2834,-1.449196 0.36217,-0.771066 0.8481,-1.275126 1.62061,-1.681068 0.85819,-0.450965 1.71114,-0.632815 3.00064,-0.639737 l 1.01444,-0.0054 0.30803,-0.419011 c 0.60966,-0.829346 2.05351,-1.54696 3.6048,-1.791653 0.34539,-0.05448 1.18791,-0.09938 1.87225,-0.09978 l 1.24426,-7.3e-4 0.38657,-0.34924 c 0.21261,-0.192083 0.6309,-0.463807 0.92953,-0.603832 0.50603,-0.237273 0.63915,-0.255083 1.95688,-0.261814 l 1.41392,-0.0072 0.37343,-0.293913 c 0.84442,-0.664624 1.80316,-0.992957 2.90476,-0.994773 0.87409,-0.0014 1.52833,0.134078 2.41993,0.501263 l 0.70029,0.288399 1.03875,-0.595797 1.03874,-0.595796 0.78594,0.05518 c 0.89258,0.06267 1.77939,0.311217 2.84834,0.79831 l 0.73588,0.335325 0.52009,-0.155128 c 1.41958,-0.423426 2.47548,-0.278931 3.804929,0.520687 0.425097,0.255683 0.881594,0.523237 1.014437,0.594566 0.16423,0.08818 0.658971,0.133439 1.54581,0.141406 0.932807,0.0084 1.447457,0.05809 1.807003,0.174536 0.740187,0.239727 1.797487,0.995583 2.780107,1.987476 l 0.8675,0.875692 h 0.90298 c 0.87503,0 0.92297,0.01167 1.54856,0.377038 2.70182,1.577947 5.02664,4.268077 6.72935,7.786769 0.56584,1.169325 1.59374,3.71776 1.74383,4.323437 0.0362,0.146127 0.0937,0.265049 0.12783,0.26427 0.0341,-7.73e-4 0.23063,-0.424667 0.43675,-0.941977 0.9716,-2.438438 2.58507,-5.380293 4.01935,-7.328518 0.93865,-1.274988 2.91812,-3.233209 3.97368,-3.931018 l 0.83198,-0.550001 h 0.89664 0.89663 l 1.12148,-1.086897 c 1.70742,-1.65478 2.73599,-2.088689 4.65239,-1.962634 l 0.92236,0.06067 0.91319,-0.550516 c 1.46732,-0.884579 1.65027,-0.948695 2.70072,-0.946452 0.59431,0.0013 1.12558,0.06309 1.5072,0.175386 l 0.58937,0.173426 1.10136,-0.477819 c 1.39024,-0.603152 1.96415,-0.740986 2.77139,-0.665605 0.66416,0.06202 1.64097,0.455803 2.21305,0.892153 l 0.31335,0.239001 0.58225,-0.245063 c 1.92928,-0.812024 3.93058,-0.698209 6.07504,0.345489 l 0.99918,0.486298 0.66174,-0.102674 c 0.94479,-0.146588 1.90792,-0.126928 2.51531,0.05134 0.40421,0.118636 0.64174,0.273993 1.03397,0.676291 l 0.5092,0.522275 1.13322,0.0019 c 0.62327,0.0011 1.42159,0.04363 1.77406,0.09462 1.58409,0.229161 3.01502,0.921484 3.67118,1.776217 l 0.32371,0.421672 1.1602,0.04847 c 1.28033,0.05349 1.8851,0.225051 2.70295,0.766769 1.41507,0.9373 1.90351,3.068381 1.14736,5.005836 l -0.2828,0.724599 0.31513,0.85292 c 0.75418,2.041306 0.64252,3.263886 -0.45145,4.942969 l -0.40557,0.622496 0.11246,0.666691 c 0.22695,1.345528 -0.31634,2.962048 -1.59642,4.750028 -0.30566,0.42695 -0.30956,0.4458 -0.21722,1.0497 0.12503,0.81765 -0.0195,1.61091 -0.45432,2.49381 -0.26519,0.53845 -0.52147,0.86233 -1.14678,1.4492 l -0.80527,0.75577 -0.11028,0.7495 c -0.20895,1.42024 -0.8202,2.53222 -1.99003,3.62022 -0.38685,0.35979 -1.00261,0.83192 -1.36834,1.04919 -0.64603,0.38377 -0.67217,0.41453 -0.91785,1.0801 -0.71476,1.93636 -1.89779,2.96251 -4.36011,3.78192 -0.62387,0.20761 -0.6539,0.2321 -0.75777,0.61787 -0.2787,1.035 -0.97852,1.95593 -1.92174,2.5289 -0.47995,0.29156 -1.87299,0.81023 -2.89292,1.07714 l -0.33018,0.0864 1.46931,0.91649 c 4.63771,2.89283 7.51446,5.86785 9.3876,9.70829 1.59619,3.27262 2.33512,6.58893 2.5617,11.49696 l 0.0624,1.35258 0.56835,0.8719 c 0.34383,0.52744 0.69305,0.94403 0.88396,1.05446 0.73657,0.42608 2.18218,1.59308 3.10208,2.50424 3.41867,3.38619 5.79603,7.9448 6.63268,12.71823 0.30281,1.72765 0.37107,4.53887 0.15198,6.25868 -0.58653,4.60404 -2.64774,8.94584 -6.03589,12.71423 -0.46347,0.51548 -0.7189,0.88987 -0.79096,1.15935 -0.29061,1.08667 -1.1666,3.75102 -2.21,6.72178 -0.82949,2.36171 -1.20059,3.55959 -1.30631,4.2166 -0.70717,4.39463 -2.56174,8.53586 -5.42565,12.11541 -0.89232,1.1153 -2.97318,3.18913 -4.09165,4.07783 -1.83627,1.45904 -4.34561,2.93329 -5.64929,3.31898 -0.35081,0.10378 -0.81395,0.40719 -1.66809,1.09281 -3.82817,3.07282 -7.91089,5.42485 -12.68153,7.30579 -1.30971,0.51639 -1.44491,0.59429 -2.07719,1.1968 -4.7588,4.53478 -10.25657,7.03587 -16.37592,7.44987 -1.5449,0.10453 -1.96302,0.10399 -3.52637,-0.005 z m 4.52185,-4.78678 c 2.06334,-0.28286 3.84779,-0.86375 6.2022,-2.01897 3.93843,-1.93246 8.02159,-5.40928 8.59666,-7.32011 0.73229,-2.43318 -3.69614,-5.0076 -10.4794,-6.09209 -1.15684,-0.18496 -1.65751,-0.20729 -4.39711,-0.19624 -2.10283,0.008 -3.56026,0.0626 -4.55689,0.16914 -6.73843,0.72042 -12.775787,2.95876 -14.090377,5.22398 -0.329541,0.56784 -0.385271,1.01642 -0.19678,1.58392 0.376388,1.13319 2.025877,2.97056 4.016327,4.4738 3.44575,2.60231 7.07448,4.04749 10.96319,4.3662 0.71846,0.0589 2.89208,-0.0457 3.94218,-0.18963 z m 26.36524,-15.25417 c 4.93954,-0.65259 9.59716,-3.68959 13.39432,-8.73379 1.89611,-2.5188 2.92131,-4.96656 3.4641,-8.2708 0.2704,-1.64607 0.24305,-5.72854 -0.0498,-7.43921 -0.51243,-2.99283 -1.50809,-5.74532 -2.49558,-6.89898 -0.408,-0.47665 -1.45911,-1.00549 -2.33469,-1.17464 -1.34345,-0.25954 -3.12451,0.10288 -4.99307,1.01602 -3.14216,1.53552 -6.37619,4.35308 -10.09692,8.79664 -2.76428,3.30131 -4.87705,7.69924 -5.7483,11.96563 -0.8317,4.07273 -0.36977,7.29185 1.28363,8.94524 0.41449,0.41449 0.80273,0.67769 1.47542,1.00019 1.78851,0.85746 3.71811,1.10849 6.10093,0.7937 z m -52.540616,-0.23569 c 1.3216,-0.36253 1.91781,-0.68754 2.40873,-1.31302 1.02086,-1.30069 1.41722,-2.5901 1.49041,-4.84856 0.0779,-2.40414 -0.23659,-4.38981 -1.09581,-6.91836 -0.92903,-2.73402 -2.34381,-5.20134 -4.22044,-7.36025 -3.03491,-3.49144 -6.20536,-5.93162 -9.39137,-7.22821 -1.7609,-0.71662 -2.56347,-0.88323 -4.25098,-0.88248 -1.33311,9.6e-4 -1.51025,0.022 -2.21148,0.26746 -0.94998,0.33251 -1.4391,0.61637 -1.97799,1.14788 -1.43694,1.41729 -2.13232,3.58669 -2.13677,6.66625 -0.003,2.25639 0.39982,4.50888 1.24279,6.94482 1.12574,3.25307 2.40718,5.39472 4.62096,7.72298 3.06692,3.2255 6.65397,5.22732 10.65518,5.94633 1.13494,0.20394 3.89472,0.12181 4.86677,-0.14484 z m 26.608746,-6.09888 c 4.93713,-0.53858 9.30721,-2.99492 12.14027,-6.82381 0.70411,-0.9516 1.63861,-2.69928 2.03078,-3.7979 2.77473,-7.7732 -1.09797,-16.00748 -9.12682,-19.40574 -3.60089,-1.5241 -8.08996,-1.87462 -11.95655,-0.93361 -1.90737,0.4642 -3.77252,1.2766 -5.3855,2.34577 -1.15014,0.76236 -1.47481,1.0279 -2.54507,2.08159 -2.411935,2.37455 -3.899149,5.22385 -4.472874,8.56939 -0.205384,1.19766 -0.153923,3.72563 0.100304,4.92727 0.796866,3.76651 2.81958,6.89481 6.07957,9.40256 3.57411,2.7494 8.57231,4.13231 13.13589,3.63448 z M 66.420874,181.81838 c 2.50063,-1.27573 4.86601,-8.23006 5.69825,-16.75315 0.15984,-1.63695 0.15809,-6.00121 -0.003,-7.19768 -0.36312,-2.69885 -1.02978,-4.31711 -2.05911,-4.99828 -0.32989,-0.21831 -0.51115,-0.26713 -0.99184,-0.26713 -0.53453,0 -0.65582,0.0422 -1.32979,0.46222 -4.37337,2.72581 -7.29201,6.92648 -8.30467,11.95256 -0.19676,0.97657 -0.22397,1.3917 -0.22477,3.42976 -5.8e-4,1.5033 0.0442,2.57354 0.12738,3.04332 0.55447,3.13172 1.70945,5.96025 3.32193,8.13541 0.73744,0.99478 2.09167,2.36168 2.40335,2.42585 0.3748,0.0772 0.94578,-0.0205 1.36217,-0.23288 z m 94.894856,-0.37364 c 0.36872,-0.14018 1.68104,-1.52146 2.40866,-2.53522 0.35456,-0.49398 0.94788,-1.50001 1.31851,-2.23564 3.08126,-6.11569 2.78315,-13.5261 -0.75714,-18.8205 -1.28242,-1.91781 -2.72213,-3.3609 -4.69961,-4.71065 -1.32837,-0.90669 -1.68057,-1.07197 -2.28436,-1.07197 -2.12396,0 -3.36398,2.80243 -3.52683,7.97059 -0.21399,6.79092 1.78938,15.95049 4.29336,19.62957 0.46016,0.67612 1.34689,1.53308 1.78198,1.72216 0.36676,0.15938 1.11291,0.18568 1.46543,0.0517 z m -66.550259,-4.00833 c 6.596699,-1.36114 12.005629,-6.47292 14.378269,-13.58835 2.19644,-6.58703 1.09857,-13.32702 -2.83685,-17.41585 -1.93964,-2.01526 -3.9609,-3.16815 -6.572559,-3.74888 -1.464578,-0.32566 -4.002982,-0.32263 -5.603557,0.007 -4.51061,0.92807 -8.91536,3.75832 -12.09711,7.77291 -1.77236,2.23629 -3.1468,5.49461 -3.79809,9.00392 -0.21949,1.18268 -0.29973,4.30588 -0.14472,5.63354 0.4142,3.54778 1.88582,6.64398 4.24563,8.93256 2.15259,2.08761 4.86368,3.33689 7.97807,3.67632 0.97722,0.10649 3.30348,-0.0361 4.450917,-0.27287 z M 139.371,176.56038 c 3.54885,-0.62903 6.15729,-2.30546 8.10673,-5.21015 1.11556,-1.66221 1.80562,-3.34478 2.27815,-5.55477 0.24148,-1.12945 0.25915,-1.37355 0.25557,-3.53201 -0.003,-2.10813 -0.0272,-2.43848 -0.26135,-3.6374 -1.50335,-7.69837 -6.51303,-13.82566 -13.1062,-16.03006 -2.04634,-0.68418 -2.78204,-0.80135 -5.07555,-0.80834 -1.78739,-0.005 -2.14869,0.0206 -3.03547,0.21916 -4.88353,1.09324 -8.51375,4.50792 -10.15469,9.55175 -0.62674,1.92644 -0.80229,3.11665 -0.80229,5.43947 0,2.61681 0.28772,4.25363 1.16331,6.618 0.653,1.76331 2.18709,4.35783 3.58405,6.06149 0.79937,0.97488 2.51653,2.61824 3.49661,3.34634 2.67353,1.98618 5.99474,3.3156 9.18346,3.67598 1.06884,0.1208 3.30159,0.0495 4.36767,-0.13946 z m 15.87987,-29.06482 c 0.22191,-0.19088 0.2761,-0.33513 0.33576,-0.89367 0.0894,-0.83646 -0.0475,-3.37512 -0.24979,-4.63196 -1.30543,-8.1125 -6.82303,-13.66876 -15.00403,-15.10915 -2.18293,-0.38434 -5.55763,-0.41019 -7.89494,-0.0605 -1.21234,0.18139 -1.46335,0.34245 -1.35902,0.87205 0.28508,1.44721 3.1597,4.85827 7.49395,8.89242 6.91552,6.4367 13.64977,11.12892 16.00823,11.15408 0.29066,0.003 0.48003,-0.06 0.66984,-0.22329 z M 73.214034,146.7694 c 1.52145,-0.58938 3.79269,-2.0094 6.66924,-4.16975 6.20051,-4.65671 13.53037,-11.83787 15.008628,-14.70416 0.321542,-0.62346 0.394614,-1.22974 0.17062,-1.41564 -0.43684,-0.36254 -5.208278,-0.62635 -7.324298,-0.40495 -2.3854,0.24959 -4.86137,0.94352 -6.88467,1.92953 -5.92841,2.88908 -9.51119,8.31995 -10.09615,15.30396 -0.20754,2.47784 -0.11552,3.42247 0.35961,3.69174 0.37787,0.21415 1.17498,0.12645 2.09702,-0.23073 z m 45.504776,-5.5133 c 4.31668,-0.66216 7.5188,-2.02743 9.39997,-4.00782 1.16067,-1.22188 1.67057,-2.38513 1.66934,-3.80828 -8.7e-4,-1.02533 -0.18386,-1.74924 -0.68617,-2.71475 -1.82097,-3.50014 -7.06409,-6.72795 -12.41202,-7.64119 -2.23235,-0.38121 -4.83727,-0.25905 -7.19768,0.33755 -2.96479,0.74935 -6.06083,2.34388 -8.22304,4.23507 -2.046084,1.7896 -3.231596,3.96487 -3.031958,5.56325 0.391402,3.13373 4.183348,6.19452 9.355298,7.55144 0.95407,0.25031 2.95088,0.60618 3.97689,0.70876 0.21254,0.0213 1.60377,0.0262 3.09161,0.0111 2.17935,-0.0222 2.96808,-0.0679 4.05776,-0.23508 z M 90.073024,122.1804 c 4.453102,-0.62407 7.914227,-2.14422 10.124946,-4.44696 1.19132,-1.2409 1.9426,-2.47306 2.46985,-4.05073 l 0.25307,-0.75726 -0.6513,-0.72873 c -1.47476,-1.65008 -4.759865,-4.46447 -7.752366,-6.64154 -2.61302,-1.901 -6.3309,-4.27679 -10.24099,-6.544173 -1.78365,-1.034301 -3.20334,-1.817969 -7.77735,-4.293075 -0.4251,-0.230031 -0.7454,-0.41904 -0.71177,-0.42002 0.14324,-0.0042 4.16895,1.400586 5.70492,1.990719 8.65065,3.323655 16.069325,7.477129 22.278016,12.472729 l 1.47548,1.18719 0.50509,-0.25459 c 2.0891,-1.05302 3.5847,-2.76984 4.23986,-4.867 0.1978,-0.63313 0.22637,-0.91974 0.22637,-2.27041 0,-1.7072 -0.12405,-2.48372 -0.6441,-4.031898 -0.86488,-2.574673 -2.33914,-5.174955 -4.3396,-7.65408 -0.5164,-0.63996 -1.11122,-1.329678 -1.32183,-1.532706 l -0.38293,-0.369142 -0.0701,0.803753 c -0.0386,0.442064 -0.12918,0.945116 -0.20137,1.117893 -0.13478,0.322557 -0.37111,0.416225 -0.46076,0.182611 -0.12524,-0.326372 -1.78476,-2.259908 -3.097488,-3.608934 -0.792693,-0.814612 -1.455743,-1.46663 -1.473445,-1.448929 -0.0177,0.0177 0.012,0.42086 0.06601,0.895906 0.111819,0.983533 -0.02377,1.547685 -0.437056,1.81848 -0.215607,0.141272 -0.236769,0.135256 -0.397245,-0.112929 -0.434018,-0.67124 -4.038052,-4.064442 -3.864402,-3.638339 0.0421,0.103376 0.0991,0.477884 0.12662,0.832242 0.0411,0.529139 0.0131,0.720523 -0.15649,1.070859 -0.11357,0.234615 -0.30393,0.51792 -0.42302,0.629566 l -0.21653,0.202994 -0.86951,-0.634105 c -0.47824,-0.348758 -1.26081,-0.893766 -1.73904,-1.21113 -0.94497,-0.627098 -3.01286,-1.68295 -3.10859,-1.587225 -0.0326,0.03263 0.16435,0.390414 0.43774,0.795078 0.33859,0.501192 0.49694,0.832972 0.49669,1.0407 -4.8e-4,0.390346 -0.34459,0.969529 -0.53308,0.897199 -0.0765,-0.02936 -0.53946,-0.32258 -1.02879,-0.651604 -1.56589,-1.052902 -3.15629,-1.688308 -5.13544,-2.051746 l -0.75597,-0.138821 0.20436,0.217527 c 0.11239,0.11964 0.49628,0.446528 0.85307,0.726418 0.3568,0.27989 0.73183,0.619067 0.83341,0.753727 0.22611,0.299766 0.23689,0.69885 0.0275,1.018398 l -0.15716,0.239853 -0.75262,-0.234763 c -1.13967,-0.355498 -5.46691,-1.489324 -5.51198,-1.444254 -0.0217,0.02174 0.055,0.09012 0.17052,0.151948 0.34054,0.182252 0.96741,0.785365 1.11703,1.074693 0.19273,0.372701 0.17427,0.540758 -0.0882,0.803253 l -0.22689,0.226886 -0.7634,-0.220655 c -1.29996,-0.375745 -2.60209,-0.556497 -4.09655,-0.568652 -1.51321,-0.01231 -2.70516,0.09371 -2.70516,0.240617 0,0.05044 0.36725,0.579561 0.81612,1.175821 l 0.81613,1.084108 -3.48063,0.02537 c -1.91435,0.01395 -3.46633,0.05743 -3.44884,0.09661 0.0175,0.03919 0.32249,0.614695 0.67777,1.27891 0.66474,1.242741 1.13975,2.336604 1.43694,3.308999 l 0.16979,0.555525 h -1.44034 c -1.00499,0 -1.44034,0.03295 -1.44034,0.109006 0,0.05995 0.13832,0.353415 0.30737,0.652138 0.42874,0.757595 1.59176,1.881432 2.74487,2.65238 0.53628,0.358551 1.11993,0.80139 1.29701,0.984087 l 0.32196,0.332176 -0.37919,0.162924 c -0.59848,0.257145 -1.90368,0.287795 -2.57453,0.06046 l -0.55291,-0.187373 0.2413,0.443036 c 0.37989,0.697464 0.9978,1.477364 2.459,3.103644 0.74594,0.83021 1.48867,1.68953 1.65051,1.9096 l 0.29426,0.40013 -1.41493,0.0268 -1.41492,0.0268 0.56313,0.39819 c 0.30972,0.21901 1.23272,0.95006 2.05112,1.62455 0.8184,0.6745 1.71888,1.38657 2.00106,1.58238 0.28218,0.19581 0.51471,0.39107 0.51672,0.43391 0.01,0.20721 -0.9292,0.47521 -1.84097,0.52545 -0.52326,0.0288 -0.93092,0.0855 -0.90591,0.12599 0.0872,0.14112 2.2276,1.51871 3.33023,2.14339 0.61108,0.34621 1.64543,0.897 2.29856,1.22399 0.65313,0.32699 1.16214,0.63558 1.13112,0.68577 -0.12106,0.19588 -1.33675,0.483 -2.06312,0.48726 l -0.73858,0.004 0.46404,0.41601 c 0.47624,0.42696 1.73296,1.13659 2.67589,1.51099 0.29225,0.11605 1.37693,0.51052 2.4104,0.87661 1.03346,0.36608 1.91814,0.70472 1.96595,0.75253 0.0515,0.0515 -0.11727,0.24834 -0.414,0.48289 -0.43177,0.34129 -0.76974,0.48626 -1.69029,0.72503 -0.11278,0.0292 1.23775,0.4008 1.94055,0.53388 0.27115,0.0513 1.16241,0.1407 1.98057,0.19858 2.39662,0.16954 2.66725,0.20155 2.8531,0.33744 0.16764,0.12258 0.16832,0.14619 0.0135,0.47078 -0.16473,0.34543 -0.977,1.06183 -1.33151,1.17435 -0.36551,0.11601 -0.19049,0.23221 0.41134,0.27312 1.16073,0.0789 4.76678,-0.0244 5.77263,-0.16535 z m 53.382556,-0.28216 c -0.73833,-0.59609 -1.3081,-1.15783 -1.3081,-1.28968 0,-0.22145 0.57305,-0.49866 1.24733,-0.60339 0.35014,-0.0544 1.18008,-0.12482 1.84429,-0.1565 2.22045,-0.10592 3.66416,-0.37352 4.61087,-0.85466 l 0.4432,-0.22524 -0.41168,-0.0658 c -0.22644,-0.0362 -0.54843,-0.13522 -0.71555,-0.22002 -0.46173,-0.23431 -1.14947,-0.82141 -1.05966,-0.90461 0.0437,-0.0405 0.49254,-0.19061 0.99735,-0.33353 1.61313,-0.45672 3.86818,-1.39821 5.15964,-2.15416 l 0.66712,-0.39051 -0.84327,0.0149 c -0.84191,0.0148 -0.84375,0.0143 -1.13345,-0.30897 l -0.29018,-0.32381 2.20536,-1.09251 c 2.17229,-1.07613 3.974,-2.16757 4.50537,-2.72925 l 0.27113,-0.28661 -0.94743,-0.0459 c -0.93595,-0.0454 -1.86525,-0.31719 -1.86525,-0.5456 0,-0.10684 1.02484,-1.04016 2.8984,-2.63961 0.71735,-0.61239 1.52165,-1.31888 1.78734,-1.56997 0.52862,-0.49957 0.56044,-0.48918 -0.57444,-0.18766 -0.68841,0.18289 -1.35517,0.12904 -1.6146,-0.1304 -0.1847,-0.1847 -0.16913,-0.20368 1.36414,-1.66361 1.49801,-1.42635 2.49953,-2.59891 2.91439,-3.412096 0.18664,-0.365842 0.18793,-0.385667 0.0208,-0.321296 -0.47452,0.182813 -1.40378,0.342716 -1.99912,0.344 -0.66014,0.0014 -1.31888,-0.203274 -1.31888,-0.409834 0,-0.10998 0.50559,-0.608939 1.76103,-1.737954 1.04768,-0.94218 1.92378,-2.242728 2.24562,-3.333577 l 0.0641,-0.21738 h -1.46222 -1.46222 l 0.0671,-0.217379 c 0.41362,-1.339728 0.83564,-2.138087 2.00454,-3.792064 l 0.81935,-1.159357 -3.4701,-0.04831 -3.47009,-0.04831 0.82343,-0.819079 c 0.45289,-0.450493 0.82344,-0.847574 0.82344,-0.882403 0,-0.03483 -0.0978,-0.09121 -0.21738,-0.125296 -1.0754,-0.306578 -1.3878,-0.355378 -2.29456,-0.358422 -1.10637,-0.0037 -1.94964,0.152468 -3.90375,0.723011 -1.06401,0.310665 -1.16725,0.324721 -1.37673,0.187461 -0.4281,-0.280503 -0.30592,-0.583513 0.56704,-1.406286 0.43693,-0.411813 0.76125,-0.748752 0.72071,-0.748752 -0.1569,0 -3.1962,0.7877 -4.65675,1.206897 -0.84445,0.242368 -1.59148,0.419138 -1.66005,0.392823 -0.15369,-0.05898 -0.16236,-0.476662 -0.0158,-0.760706 0.0599,-0.116066 0.48379,-0.598077 0.94198,-1.071136 0.49124,-0.50718 0.78309,-0.877326 0.71126,-0.902071 -0.16867,-0.0581 -3.06101,0.872779 -4.17747,1.344499 -0.5048,0.213285 -1.32624,0.630731 -1.82541,0.927658 l -0.90758,0.539865 -0.22762,-0.264623 c -0.40917,-0.475684 -0.2975,-1.008671 0.42081,-2.008507 0.18794,-0.261599 0.31547,-0.501876 0.2834,-0.533947 -0.0694,-0.06936 -1.70128,0.707635 -2.52463,1.202032 -0.31955,0.191877 -1.15112,0.753969 -1.84792,1.249092 -0.69681,0.495124 -1.29638,0.900226 -1.33234,0.900226 -0.17094,0 -0.68024,-0.475732 -0.88825,-0.8297 -0.29303,-0.498652 -0.29413,-0.947274 -0.004,-1.520947 0.12562,-0.248123 0.2017,-0.451102 0.16908,-0.451063 -0.12159,1.45e-4 -1.70508,0.982402 -2.20301,1.366552 -0.6323,0.487816 -1.44589,1.356829 -1.98196,2.116976 -0.46135,0.654197 -0.51306,0.645481 -0.90337,-0.152285 -0.23224,-0.474694 -0.24603,-0.5737 -0.18354,-1.318442 l 0.0676,-0.805207 -0.31513,0.289839 c -0.17333,0.159412 -1.06442,1.159357 -1.9802,2.222101 -0.91579,1.062744 -1.81615,2.075688 -2.00081,2.250988 l -0.33575,0.318725 -0.22413,-0.608564 c -0.12327,-0.334712 -0.27161,-0.84099 -0.32964,-1.125064 l -0.10551,-0.516499 -0.87173,0.902951 c -1.73227,1.794297 -3.21699,3.86404 -4.28626,5.975139 -2.8539,5.634551 -2.47787,10.284031 1.05752,13.075881 0.41432,0.32718 0.98803,0.72143 1.27491,0.87611 l 0.52161,0.28124 0.71818,-0.60585 c 5.17991,-4.36972 12.72442,-8.62752 22.18803,-12.521987 1.67952,-0.691157 5.77301,-2.283613 6.45133,-2.509707 0.10627,-0.03542 -0.62001,0.371982 -1.61395,0.905342 -11.46728,6.153462 -18.64877,10.955552 -23.6333,15.803032 -0.44227,0.43011 -1.01841,1.02714 -1.28032,1.32673 l -0.47618,0.54472 0.19398,0.62804 c 1.48434,4.80574 6.25422,7.77084 13.62208,8.46791 1.75112,0.16567 1.78742,0.16744 3.6713,0.1792 l 1.78734,0.0112 z"
       id="path67" />
  </g>
</svg>
